# xmcd
#
# Track frame offsets: 
#        150
#        15255
#        42302
#        59162
#        79910
#        110137
#        138152
#        164866
#        196911
#        226223
#        242243
#
# Disc length: 3709 seconds
#
# Revision: 0
# Processed by: cddbd v1.5.2PL0 Copyright (c) Steve Scherf et al.
# Submitted via: ExactAudioCopy v1.0b1
#
DISCID=980e7b0b
DTITLE=Eric Clapton  - The Complete Hyde Park Show - 1996-06-29 - Disc
DTITLE=1
DYEAR=1900
DGENRE=
TTITLE0=Hoochie Coochie Man
TTITLE1=Badge
TTITLE2=It Hurts Me Too
TTITLE3=Wonderful Tonight
TTITLE4=Have You Ever Loved a Woman
TTITLE5=Everyday I Have the Blues
TTITLE6=Holy Mother
TTITLE7=Layla
TTITLE8=Badge
TTITLE9=Hoochie Coochie Man
TTITLE10=I Shot the Sheriff
EXTD=
EXTT0=
EXTT1=
EXTT2=
EXTT3=
EXTT4=
EXTT5=
EXTT6=
EXTT7=
EXTT8=
EXTT9=
EXTT10=
PLAYORDER=
